REM DIRINDEX 1\2,1\3,1\4,1\5
REM DIRNAME "folder01","folder02","folder03","folder04","folder05"
TITLE ""
FILE "DISC1Track01.mp3" MP3
  TRACK 01 AUDIO
    TITLE "2:cjc158_0001"
    INDEX 01 00:00:00
  TRACK 02 AUDIO
    TITLE "0:"
    INDEX 01 00:03:15
  TRACK 03 AUDIO
    TITLE "2:cjc158_0002"
    INDEX 01 00:03:38
  TRACK 04 AUDIO
    TITLE "0:"
    INDEX 01 00:09:05
  TRACK 05 AUDIO
    TITLE "3:cjc158_0003"
    INDEX 01 00:09:23
  TRACK 06 AUDIO
    TITLE "4:cjc158_0004"
    INDEX 01 00:11:12
  TRACK 07 AUDIO
    TITLE "5:cjc158_0005"
    INDEX 01 00:13:33
  TRACK 08 AUDIO
    TITLE "0:"
    INDEX 01 00:15:24
  TRACK 09 AUDIO
    TITLE "3:cjc158_0006"
    INDEX 01 00:15:59
  TRACK 10 AUDIO
    TITLE "4:cjc158_0007"
    INDEX 01 00:17:50
  TRACK 11 AUDIO
    TITLE "5:cjc158_0008"
    INDEX 01 00:20:13
  TRACK 12 AUDIO
    TITLE "0:"
    INDEX 01 00:22:28
  TRACK 13 AUDIO
    TITLE "3:cjc158_0009"
    INDEX 01 00:22:59
  TRACK 14 AUDIO
    TITLE "4:cjc158_0010"
    INDEX 01 00:25:46
  TRACK 15 AUDIO
    TITLE "5:cjc158_0011"
    INDEX 01 00:28:56
  TRACK 16 AUDIO
    TITLE "0:"
    INDEX 01 00:31:56
  TRACK 17 AUDIO
    TITLE "3:cjc158_0012"
    INDEX 01 00:32:12
  TRACK 18 AUDIO
    TITLE "4:cjc158_0013"
    INDEX 01 00:34:21
  TRACK 19 AUDIO
    TITLE "5:cjc158_0014"
    INDEX 01 00:36:55
  TRACK 20 AUDIO
    TITLE "0:"
    INDEX 01 00:39:06
  TRACK 21 AUDIO
    TITLE "3:cjc158_0015"
    INDEX 01 00:39:36
  TRACK 22 AUDIO
    TITLE "4:cjc158_0016"
    INDEX 01 00:42:34
  TRACK 23 AUDIO
    TITLE "5:cjc158_0017"
    INDEX 01 00:45:34
  TRACK 24 AUDIO
    TITLE "0:"
    INDEX 01 00:48:17
  TRACK 25 AUDIO
    TITLE "3:cjc158_0018"
    INDEX 01 00:48:50
  TRACK 26 AUDIO
    TITLE "4:cjc158_0019"
    INDEX 01 00:51:04
  TRACK 27 AUDIO
    TITLE "5:cjc158_0020"
    INDEX 01 00:53:32
  TRACK 28 AUDIO
    TITLE "0:"
    INDEX 01 00:55:45
  TRACK 29 AUDIO
    TITLE "3:cjc158_0021"
    INDEX 01 00:56:05
  TRACK 30 AUDIO
    TITLE "4:cjc158_0022"
    INDEX 01 00:58:29
  TRACK 31 AUDIO
    TITLE "5:cjc158_0023"
    INDEX 01 01:01:08
  TRACK 32 AUDIO
    TITLE "0:"
    INDEX 01 01:03:30
  TRACK 33 AUDIO
    TITLE "3:cjc158_0024"
    INDEX 01 01:04:02
  TRACK 34 AUDIO
    TITLE "4:cjc158_0025"
    INDEX 01 01:05:41
  TRACK 35 AUDIO
    TITLE "5:cjc158_0026"
    INDEX 01 01:07:54
  TRACK 36 AUDIO
    TITLE "0:"
    INDEX 01 01:09:43
  TRACK 37 AUDIO
    TITLE "3:cjc158_0027"
    INDEX 01 01:09:74
  TRACK 38 AUDIO
    TITLE "4:cjc158_0028"
    INDEX 01 01:13:33
  TRACK 39 AUDIO
    TITLE "5:cjc158_0029"
    INDEX 01 01:16:47
  TRACK 40 AUDIO
    TITLE "0:"
    INDEX 01 01:19:22
  TRACK 41 AUDIO
    TITLE "3:cjc158_0030"
    INDEX 01 01:20:00
  TRACK 42 AUDIO
    TITLE "4:cjc158_0031"
    INDEX 01 01:21:36
  TRACK 43 AUDIO
    TITLE "5:cjc158_0032"
    INDEX 01 01:23:47
  TRACK 44 AUDIO
    TITLE "0:"
    INDEX 01 01:25:38
  TRACK 45 AUDIO
    TITLE "3:cjc158_0033"
    INDEX 01 01:25:71
  TRACK 46 AUDIO
    TITLE "4:cjc158_0034"
    INDEX 01 01:28:38
  TRACK 47 AUDIO
    TITLE "5:cjc158_0035"
    INDEX 01 01:31:31
  TRACK 48 AUDIO
    TITLE "0:"
    INDEX 01 01:34:02
  TRACK 49 AUDIO
    TITLE "3:cjc158_0036"
    INDEX 01 01:34:33
  TRACK 50 AUDIO
    TITLE "4:cjc158_0037"
    INDEX 01 01:37:49
  TRACK 51 AUDIO
    TITLE "5:cjc158_0038"
    INDEX 01 01:40:63
  TRACK 52 AUDIO
    TITLE "0:"
    INDEX 01 01:43:69
  TRACK 53 AUDIO
    TITLE "3:cjc158_0039"
    INDEX 01 01:44:24
  TRACK 54 AUDIO
    TITLE "4:cjc158_0040"
    INDEX 01 01:48:21
  TRACK 55 AUDIO
    TITLE "5:cjc158_0041"
    INDEX 01 01:51:45
  TRACK 56 AUDIO
    TITLE "0:"
    INDEX 01 01:54:42
  TRACK 57 AUDIO
    TITLE "3:cjc158_0042"
    INDEX 01 01:54:71
  TRACK 58 AUDIO
    TITLE "4:cjc158_0043"
    INDEX 01 01:56:62
  TRACK 59 AUDIO
    TITLE "5:cjc158_0044"
    INDEX 01 01:59:02
  TRACK 60 AUDIO
    TITLE "0:"
    INDEX 01 02:00:72
